<svg id="my-svg" width="100%" xmlns="http://www.w3.org/2000/svg" xmlns:xlink="http://www.w3.org/1999/xlink" class="flowchart" style="max-width: 1421.9px; background-color: rgb(31, 27, 22);" viewBox="0 0 1421.9044189453125 170.99505615234375" role="graphics-document document" aria-roledescription="flowchart-v2"><style>#my-svg{font-family:JetBrains Mono,monospace;font-size:16px;fill:#F5F4ED;}@keyframes edge-animation-frame{from{stroke-dashoffset:0;}}@keyframes dash{to{stroke-dashoffset:0;}}#my-svg .edge-animation-slow{stroke-dasharray:9,5!important;stroke-dashoffset:900;animation:dash 50s linear infinite;stroke-linecap:round;}#my-svg .edge-animation-fast{stroke-dasharray:9,5!important;stroke-dashoffset:900;animation:dash 20s linear infinite;stroke-linecap:round;}#my-svg .error-icon{fill:#232019;}#my-svg .error-text{fill:#dcdfe6;stroke:#dcdfe6;}#my-svg .edge-thickness-normal{stroke-width:1px;}#my-svg .edge-thickness-thick{stroke-width:3.5px;}#my-svg .edge-pattern-solid{stroke-dasharray:0;}#my-svg .edge-thickness-invisible{stroke-width:0;fill:none;}#my-svg .edge-pattern-dashed{stroke-dasharray:3;}#my-svg .edge-pattern-dotted{stroke-dasharray:2;}#my-svg .marker{fill:#B8A798;stroke:#B8A798;}#my-svg .marker.cross{stroke:#B8A798;}#my-svg svg{font-family:JetBrains Mono,monospace;font-size:16px;}#my-svg p{margin:0;}#my-svg .label{font-family:JetBrains Mono,monospace;color:#F5F4ED;}#my-svg .cluster-label text{fill:#dcdfe6;}#my-svg .cluster-label span{color:#dcdfe6;}#my-svg .cluster-label span p{background-color:transparent;}#my-svg .label text,#my-svg span{fill:#F5F4ED;color:#F5F4ED;}#my-svg .node rect,#my-svg .node circle,#my-svg .node ellipse,#my-svg .node polygon,#my-svg .node path{fill:#26221C;stroke:#D97757;stroke-width:1px;}#my-svg .rough-node .label text,#my-svg .node .label text,#my-svg .image-shape .label,#my-svg .icon-shape .label{text-anchor:middle;}#my-svg .node .katex path{fill:#000;stroke:#000;stroke-width:1px;}#my-svg .rough-node .label,#my-svg .node .label,#my-svg .image-shape .label,#my-svg .icon-shape .label{text-align:center;}#my-svg .node.clickable{cursor:pointer;}#my-svg .root .anchor path{fill:#B8A798!important;stroke-width:0;stroke:#B8A798;}#my-svg .arrowheadPath{fill:#e0e4e9;}#my-svg .edgePath .path{stroke:#B8A798;stroke-width:1px;}#my-svg .flowchart-link{stroke:#B8A798;fill:none;}#my-svg .edgeLabel{background-color:#1F1B16;text-align:center;}#my-svg .edgeLabel p{background-color:#1F1B16;}#my-svg .edgeLabel rect{opacity:0.5;background-color:#1F1B16;fill:#1F1B16;}#my-svg .labelBkg{background-color:rgba(31, 27, 22, 0.5);}#my-svg .cluster rect{fill:#232019;stroke:hsl(42, 0%, 21.7647058824%);stroke-width:1px;}#my-svg .cluster text{fill:#dcdfe6;}#my-svg .cluster span{color:#dcdfe6;}#my-svg div.mermaidTooltip{position:absolute;text-align:center;max-width:200px;padding:2px;font-family:JetBrains Mono,monospace;font-size:12px;background:#232019;border:1px solid hsl(42, 0%, 21.7647058824%);border-radius:2px;pointer-events:none;z-index:100;}#my-svg .flowchartTitleText{text-anchor:middle;font-size:18px;fill:#F5F4ED;}#my-svg rect.text{fill:none;stroke-width:0;}#my-svg .icon-shape,#my-svg .image-shape{background-color:#1F1B16;text-align:center;}#my-svg .icon-shape p,#my-svg .image-shape p{background-color:#1F1B16;padding:2px;}#my-svg .icon-shape .label rect,#my-svg .image-shape .label rect{opacity:0.5;background-color:#1F1B16;fill:#1F1B16;}#my-svg .label-icon{display:inline-block;height:1em;overflow:visible;vertical-align:-0.125em;}#my-svg .node .label-icon path{fill:currentColor;stroke:revert;stroke-width:revert;}#my-svg .node .neo-node{stroke:#D97757;}#my-svg [data-look="neo"].node rect,#my-svg [data-look="neo"].cluster rect,#my-svg [data-look="neo"].node polygon{stroke:url(#my-svg-gradient);filter:drop-shadow( 1px 2px 2px rgba(185,185,185,1));}#my-svg [data-look="neo"].swimlane.cluster rect{filter:none;}#my-svg [data-look="neo"].node path{stroke:url(#my-svg-gradient);stroke-width:1px;}#my-svg [data-look="neo"].node .outer-path{filter:drop-shadow( 1px 2px 2px rgba(185,185,185,1));}#my-svg [data-look="neo"].node .neo-line path{stroke:#D97757;filter:none;}#my-svg [data-look="neo"].node circle{stroke:url(#my-svg-gradient);filter:drop-shadow( 1px 2px 2px rgba(185,185,185,1));}#my-svg [data-look="neo"].node circle .state-start{fill:#000000;}#my-svg [data-look="neo"].icon-shape .icon{fill:url(#my-svg-gradient);filter:drop-shadow( 1px 2px 2px rgba(185,185,185,1));}#my-svg [data-look="neo"].icon-shape .icon-neo path{stroke:url(#my-svg-gradient);filter:drop-shadow( 1px 2px 2px rgba(185,185,185,1));}#my-svg :root{--mermaid-font-family:"trebuchet ms",verdana,arial,sans-serif;}#my-svg .block rect{fill:rgb(217, 119, 87)!important;stroke:rgb(245, 176, 149)!important;stroke-width:2.5px!important;color:rgb(31, 27, 22)!important;}#my-svg .block polygon{fill:rgb(217, 119, 87)!important;stroke:rgb(245, 176, 149)!important;stroke-width:2.5px!important;color:rgb(31, 27, 22)!important;}#my-svg .block ellipse{fill:rgb(217, 119, 87)!important;stroke:rgb(245, 176, 149)!important;stroke-width:2.5px!important;color:rgb(31, 27, 22)!important;}#my-svg .block circle{fill:rgb(217, 119, 87)!important;stroke:rgb(245, 176, 149)!important;stroke-width:2.5px!important;color:rgb(31, 27, 22)!important;}#my-svg .block path{fill:rgb(217, 119, 87)!important;stroke:rgb(245, 176, 149)!important;stroke-width:2.5px!important;color:rgb(31, 27, 22)!important;}#my-svg .block tspan{fill:rgb(31, 27, 22)!important;}</style><g><marker id="my-svg_flowchart-v2-pointEnd" class="marker flowchart-v2" viewBox="0 0 10 10" refX="5" refY="5" markerUnits="userSpaceOnUse" markerWidth="8" markerHeight="8" orient="auto"><path d="M 0 0 L 10 5 L 0 10 z" class="arrowMarkerPath" style="stroke-width: 1; stroke-dasharray: 1, 0;"/></marker><marker id="my-svg_flowchart-v2-pointStart" class="marker flowchart-v2" viewBox="0 0 10 10" refX="4.5" refY="5" markerUnits="userSpaceOnUse" markerWidth="8" markerHeight="8" orient="auto"><path d="M 0 5 L 10 10 L 10 0 z" class="arrowMarkerPath" style="stroke-width: 1; stroke-dasharray: 1, 0;"/></marker><marker id="my-svg_flowchart-v2-pointEnd-margin" class="marker flowchart-v2" viewBox="0 0 11.5 14" refX="11.5" refY="7" markerUnits="userSpaceOnUse" markerWidth="10.5" markerHeight="14" orient="auto"><path d="M 0 0 L 11.5 7 L 0 14 z" class="arrowMarkerPath" style="stroke-width: 0; stroke-dasharray: 1, 0;"/></marker><marker id="my-svg_flowchart-v2-pointStart-margin" class="marker flowchart-v2" viewBox="0 0 11.5 14" refX="1" refY="7" markerUnits="userSpaceOnUse" markerWidth="11.5" markerHeight="14" orient="auto"><polygon points="0,7 11.5,14 11.5,0" class="arrowMarkerPath" style="stroke-width: 0; stroke-dasharray: 1, 0;"/></marker><marker id="my-svg_flowchart-v2-circleEnd" class="marker flowchart-v2" viewBox="0 0 10 10" refX="11" refY="5" markerUnits="userSpaceOnUse" markerWidth="11" markerHeight="11" orient="auto"><circle cx="5" cy="5" r="5" class="arrowMarkerPath" style="stroke-width: 1; stroke-dasharray: 1, 0;"/></marker><marker id="my-svg_flowchart-v2-circleStart" class="marker flowchart-v2" viewBox="0 0 10 10" refX="-1" refY="5" markerUnits="userSpaceOnUse" markerWidth="11" markerHeight="11" orient="auto"><circle cx="5" cy="5" r="5" class="arrowMarkerPath" style="stroke-width: 1; stroke-dasharray: 1, 0;"/></marker><marker id="my-svg_flowchart-v2-circleEnd-margin" class="marker flowchart-v2" viewBox="0 0 10 10" refY="5" refX="12.25" markerUnits="userSpaceOnUse" markerWidth="14" markerHeight="14" orient="auto"><circle cx="5" cy="5" r="5" class="arrowMarkerPath" style="stroke-width: 0; stroke-dasharray: 1, 0;"/></marker><marker id="my-svg_flowchart-v2-circleStart-margin" class="marker flowchart-v2" viewBox="0 0 10 10" refX="-2" refY="5" markerUnits="userSpaceOnUse" markerWidth="14" markerHeight="14" orient="auto"><circle cx="5" cy="5" r="5" class="arrowMarkerPath" style="stroke-width: 0; stroke-dasharray: 1, 0;"/></marker><marker id="my-svg_flowchart-v2-crossEnd" class="marker cross flowchart-v2" viewBox="0 0 11 11" refX="12" refY="5.2" markerUnits="userSpaceOnUse" markerWidth="11" markerHeight="11" orient="auto"><path d="M 1,1 l 9,9 M 10,1 l -9,9" class="arrowMarkerPath" style="stroke-width: 2; stroke-dasharray: 1, 0;"/></marker><marker id="my-svg_flowchart-v2-crossStart" class="marker cross flowchart-v2" viewBox="0 0 11 11" refX="-1" refY="5.2" markerUnits="userSpaceOnUse" markerWidth="11" markerHeight="11" orient="auto"><path d="M 1,1 l 9,9 M 10,1 l -9,9" class="arrowMarkerPath" style="stroke-width: 2; stroke-dasharray: 1, 0;"/></marker><marker id="my-svg_flowchart-v2-crossEnd-margin" class="marker cross flowchart-v2" viewBox="0 0 15 15" refX="17.7" refY="7.5" markerUnits="userSpaceOnUse" markerWidth="12" markerHeight="12" orient="auto"><path d="M 1,1 L 14,14 M 1,14 L 14,1" class="arrowMarkerPath" style="stroke-width: 2.5;"/></marker><marker id="my-svg_flowchart-v2-crossStart-margin" class="marker cross flowchart-v2" viewBox="0 0 15 15" refX="-3.5" refY="7.5" markerUnits="userSpaceOnUse" markerWidth="12" markerHeight="12" orient="auto"><path d="M 1,1 L 14,14 M 1,14 L 14,1" class="arrowMarkerPath" style="stroke-width: 2.5; stroke-dasharray: 1, 0;"/></marker><g class="root"><g class="clusters"/><g class="edgePaths"><path d="M183.594,97.75L187.76,97.75C191.927,97.75,200.26,97.75,207.927,97.75C215.594,97.75,222.594,97.75,226.094,97.75L229.594,97.75" id="my-svg-L_G1_G2_0" class="edge-thickness-normal edge-pattern-solid edge-thickness-normal edge-pattern-solid flowchart-link" style=";" data-edge="true" data-et="edge" data-id="L_G1_G2_0" data-points="W3sieCI6MTgzLjU5Mzc1LCJ5Ijo5Ny43NX0seyJ4IjoyMDguNTkzNzUsInkiOjk3Ljc1fSx7IngiOjIzMy41OTM3NSwieSI6OTcuNzV9XQ==" data-look="classic" marker-end="url(#my-svg_flowchart-v2-pointEnd)"/><path d="M370.656,97.75L374.823,97.75C378.99,97.75,387.323,97.75,394.99,97.75C402.656,97.75,409.656,97.75,413.156,97.75L416.656,97.75" id="my-svg-L_G2_G3_0" class="edge-thickness-normal edge-pattern-solid edge-thickness-normal edge-pattern-solid flowchart-link" style=";" data-edge="true" data-et="edge" data-id="L_G2_G3_0" data-points="W3sieCI6MzcwLjY1NjI1LCJ5Ijo5Ny43NX0seyJ4IjozOTUuNjU2MjUsInkiOjk3Ljc1fSx7IngiOjQyMC42NTYyNSwieSI6OTcuNzV9XQ==" data-look="classic" marker-end="url(#my-svg_flowchart-v2-pointEnd)"/><path d="M557.719,97.75L561.885,97.75C566.052,97.75,574.385,97.75,582.052,97.75C589.719,97.75,596.719,97.75,600.219,97.75L603.719,97.75" id="my-svg-L_G3_G4_0" class="edge-thickness-normal edge-pattern-solid edge-thickness-normal edge-pattern-solid flowchart-link" style=";" data-edge="true" data-et="edge" data-id="L_G3_G4_0" data-points="W3sieCI6NTU3LjcxODc1LCJ5Ijo5Ny43NX0seyJ4Ijo1ODIuNzE4NzUsInkiOjk3Ljc1fSx7IngiOjYwNy43MTg3NSwieSI6OTcuNzV9XQ==" data-look="classic" marker-end="url(#my-svg_flowchart-v2-pointEnd)"/><path d="M797.671,73.25L820.649,66.458C843.627,59.667,889.583,46.083,931.646,39.292C973.71,32.5,1011.88,32.5,1030.965,32.5L1050.051,32.5" id="my-svg-L_G4_G5_0" class="edge-thickness-normal edge-pattern-solid edge-thickness-normal edge-pattern-solid flowchart-link" style=";" data-edge="true" data-et="edge" data-id="L_G4_G5_0" data-points="W3sieCI6Nzk3LjY3MTE1NjYwOTE5NTQsInkiOjczLjI1fSx7IngiOjkzNS41MzkwNjI1LCJ5IjozMi41fSx7IngiOjEwNTQuMDUwNzgxMjUsInkiOjMyLjV9XQ==" data-look="classic" marker-end="url(#my-svg_flowchart-v2-pointEnd)"/><path d="M1248.91,32.5L1253.88,32.5C1258.849,32.5,1268.788,32.5,1277.341,32.57C1285.893,32.641,1293.06,32.781,1296.644,32.851L1300.227,32.922" id="my-svg-L_G5_OUT_0" class="edge-thickness-normal edge-pattern-solid edge-thickness-normal edge-pattern-solid flowchart-link" style=";" data-edge="true" data-et="edge" data-id="L_G5_OUT_0" data-points="W3sieCI6MTI0OC45MTAxNTYyNSwieSI6MzIuNX0seyJ4IjoxMjc4LjcyNjU2MjUsInkiOjMyLjV9LHsieCI6MTMwNC4yMjY1NjI1MDAwMDEsInkiOjMzfV0=" data-look="classic" marker-end="url(#my-svg_flowchart-v2-pointEnd)"/><path d="M821.844,97.75L840.793,97.75C859.742,97.75,897.641,97.75,934.88,100.609C972.12,103.467,1008.701,109.185,1026.992,112.043L1045.282,114.902" id="my-svg-L_G4_RW_0" class="edge-thickness-normal edge-pattern-dotted edge-thickness-normal edge-pattern-solid flowchart-link" style=";" data-edge="true" data-et="edge" data-id="L_G4_RW_0" data-points="W3sieCI6ODIxLjg0Mzc1LCJ5Ijo5Ny43NX0seyJ4Ijo5MzUuNTM5MDYyNSwieSI6OTcuNzV9LHsieCI6MTA0OS4yMzQzNzUsInkiOjExNS41MTk3MTI5MjEyNTY4NX1d" data-look="classic" marker-end="url(#my-svg_flowchart-v2-pointEnd)"/><path d="M1049.234,141.68L1030.285,143.567C1011.336,145.453,973.438,149.227,934.657,146.15C895.877,143.074,856.216,133.147,836.385,128.184L816.554,123.221" id="my-svg-L_RW_G4_0" class="edge-thickness-normal edge-pattern-dotted edge-thickness-normal edge-pattern-solid flowchart-link" style=";" data-edge="true" data-et="edge" data-id="L_RW_G4_0" data-points="W3sieCI6MTA0OS4yMzQzNzUsInkiOjE0MS42ODAwMzQ3MzE2NDM4fSx7IngiOjkzNS41MzkwNjI1LCJ5IjoxNTN9LHsieCI6ODEyLjY3Mzg1NDYzODAwOTEsInkiOjEyMi4yNX1d" data-look="classic" marker-end="url(#my-svg_flowchart-v2-pointEnd)"/></g><g class="edgeLabels"><g class="edgeLabel"><g class="label" data-id="L_G1_G2_0" transform="translate(0, 0)"><text y="-10.1" text-anchor="middle"><tspan class="text-outer-tspan row" x="0" y="-0.1em" dy="1.1em" text-anchor="middle"/></text></g></g><g><rect class="background" style="stroke: none"/></g><g class="edgeLabel"><g class="label" data-id="L_G2_G3_0" transform="translate(0, 0)"><text y="-10.1" text-anchor="middle"><tspan class="text-outer-tspan row" x="0" y="-0.1em" dy="1.1em" text-anchor="middle"/></text></g></g><g><rect class="background" style="stroke: none"/></g><g class="edgeLabel"><g class="label" data-id="L_G3_G4_0" transform="translate(0, 0)"><text y="-10.1" text-anchor="middle"><tspan class="text-outer-tspan row" x="0" y="-0.1em" dy="1.1em" text-anchor="middle"/></text></g></g><g><rect class="background" style="stroke: none"/></g><g class="edgeLabel"><g class="label" data-id="L_G4_G5_0" transform="translate(0, 0)"><text y="-10.1" text-anchor="middle"><tspan class="text-outer-tspan row" x="0" y="-0.1em" dy="1.1em" text-anchor="middle"/></text></g></g><g><rect class="background" style="stroke: none"/></g><g class="edgeLabel"><g class="label" data-id="L_G5_OUT_0" transform="translate(0, 0)"><text y="-10.1" text-anchor="middle"><tspan class="text-outer-tspan row" x="0" y="-0.1em" dy="1.1em" text-anchor="middle"/></text></g></g><g><rect class="background" style="stroke: none"/></g><g class="edgeLabel" transform="translate(935.5390625, 97.75)"><g class="label" data-id="L_G4_RW_0" transform="translate(0, -10.5)"><g><rect class="background" style="" x="-88.6953125" y="-1" width="177.390625" height="23"/><text y="-10.1" text-anchor="middle" style=""><tspan class="text-outer-tspan row" x="0" y="-0.1em" dy="1.1em" text-anchor="middle"><tspan font-style="normal" class="text-inner-tspan" font-weight="normal">below</tspan><tspan font-style="normal" class="text-inner-tspan" font-weight="normal"> 90</tspan><tspan font-style="normal" class="text-inner-tspan" font-weight="normal"> or</tspan><tspan font-style="normal" class="text-inner-tspan" font-weight="normal"> any</tspan><tspan font-style="normal" class="text-inner-tspan" font-weight="normal"> P0</tspan></tspan></text></g></g></g><g class="edgeLabel" transform="translate(929.52589, 151.49506)"><g class="label" data-id="L_RW_G4_0" transform="translate(0, -10.5)"><g><rect class="background" style="" x="-54.98046875" y="-1" width="109.9609375" height="23"/><text y="-10.1" text-anchor="middle" style=""><tspan class="text-outer-tspan row" x="0" y="-0.1em" dy="1.1em" text-anchor="middle"><tspan font-style="normal" class="text-inner-tspan" font-weight="normal">max</tspan><tspan font-style="normal" class="text-inner-tspan" font-weight="normal"> 3</tspan><tspan font-style="normal" class="text-inner-tspan" font-weight="normal"> tries</tspan></tspan></text></g></g></g></g><g class="nodes"><g class="node default" id="my-svg-flowchart-G1-0" data-look="classic" transform="translate(95.796875, 97.75)"><rect class="basic label-container" style="" x="-87.796875" y="-24.5" width="175.59375" height="49"/><g class="label" style="" transform="translate(0, -9.5)"><rect/><g><rect class="background" style="stroke: none"/><text y="-10.1" style=""><tspan class="text-outer-tspan row" x="0" y="-0.1em" dy="1.1em"><tspan font-style="normal" class="text-inner-tspan" font-weight="normal">1</tspan><tspan font-style="normal" class="text-inner-tspan" font-weight="normal"> Capability</tspan></tspan></text></g></g></g><g class="node default" id="my-svg-flowchart-G2-1" data-look="classic" transform="translate(302.125, 97.75)"><rect class="basic label-container" style="" x="-68.53125" y="-24.5" width="137.0625" height="49"/><g class="label" style="" transform="translate(0, -9.5)"><rect/><g><rect class="background" style="stroke: none"/><text y="-10.1" style=""><tspan class="text-outer-tspan row" x="0" y="-0.1em" dy="1.1em"><tspan font-style="normal" class="text-inner-tspan" font-weight="normal">2</tspan><tspan font-style="normal" class="text-inner-tspan" font-weight="normal"> Format</tspan></tspan></text></g></g></g><g class="node default" id="my-svg-flowchart-G3-2" data-look="classic" transform="translate(489.1875, 97.75)"><rect class="basic label-container" style="" x="-68.53125" y="-24.5" width="137.0625" height="49"/><g class="label" style="" transform="translate(0, -9.5)"><rect/><g><rect class="background" style="stroke: none"/><text y="-10.1" style=""><tspan class="text-outer-tspan row" x="0" y="-0.1em" dy="1.1em"><tspan font-style="normal" class="text-inner-tspan" font-weight="normal">3</tspan><tspan font-style="normal" class="text-inner-tspan" font-weight="normal"> Visual</tspan></tspan></text></g></g></g><g class="node default block" id="my-svg-flowchart-G4-3" data-look="classic" transform="translate(714.78125, 97.75)"><rect class="basic label-container" style="fill:#D97757 !important;stroke:#F5B095 !important;stroke-width:2.5px !important" x="-107.0625" y="-24.5" width="214.125" height="49"/><g class="label" style="color:#1F1B16 !important" transform="translate(0, -9.5)"><rect/><g><rect class="background" style="stroke: none"/><text y="-10.1" style="fill:#1F1B16 !important"><tspan class="text-outer-tspan row" x="0" y="-0.1em" dy="1.1em"><tspan font-style="normal" class="text-inner-tspan" font-weight="normal">4</tspan><tspan font-style="normal" class="text-inner-tspan" font-weight="normal"> Content</tspan><tspan font-style="normal" class="text-inner-tspan" font-weight="normal"> Review</tspan></tspan></text></g></g></g><g class="node default" id="my-svg-flowchart-G5-5" data-look="classic" transform="translate(1151.48046875, 32.5)"><rect class="basic label-container" style="" x="-97.4296875" y="-24.5" width="194.859375" height="49"/><g class="label" style="" transform="translate(0, -9.5)"><rect/><g><rect class="background" style="stroke: none"/><text y="-10.1" style=""><tspan class="text-outer-tspan row" x="0" y="-0.1em" dy="1.1em"><tspan font-style="normal" class="text-inner-tspan" font-weight="normal">5</tspan><tspan font-style="normal" class="text-inner-tspan" font-weight="normal"> Asset</tspan><tspan font-style="normal" class="text-inner-tspan" font-weight="normal"> +</tspan><tspan font-style="normal" class="text-inner-tspan" font-weight="normal"> Link</tspan></tspan></text></g></g></g><g class="node default" id="my-svg-flowchart-OUT-7" data-look="classic" transform="translate(1358.8154830932617, 32.5)"><g class="basic label-container outer-path"><path d="M-38.09765625 -17 C-22.208422146861924 -17, -6.319188043723848 -17, 38.09765625 -17 C38.09765625 -17, 38.09765625 -17, 38.09765625 -17 C38.34265979653394 -16.99214321313313, 38.58766334306788 -16.98428642626626, 39.18684998967212 -16.965071676755716 C39.521145602869616 -16.93282258099985, 39.85544121606712 -16.900573485243985, 40.2715679986366 -16.860430234995185 C40.524987107812066 -16.81945939871824, 40.77840621698753 -16.778488562441293, 41.347352937923326 -16.686505668848113 C41.59659494994077 -16.62961780606126, 41.84583696195821 -16.572729943274407, 42.40978417646162 -16.4440126716635 C42.62163377621938 -16.381136822476638, 42.83348337597715 -16.318260973289775, 43.45449595640155 -16.133947699181366 C43.78233303210559 -16.013300624829572, 44.11017010780964 -15.892653550477776, 44.47719533294936 -15.757584874882369 C44.74771617286538 -15.637833323767143, 45.018237012781405 -15.518081772651918, 45.47367981499849 -15.316470754341125 C45.68786447277405 -15.204730755571434, 45.90204913054962 -15.092990756801743, 46.43985463406694 -14.812417970097622 C46.728914237838815 -14.637188339588326, 47.01797384161069 -14.461958709079028, 47.371749570579325 -14.247497783161291 C47.724353450225834 -14.001536580695827, 48.076957329872336 -13.755575378230363, 48.265535268350675 -13.624031571755262 C48.45031698942583 -13.476673066445935, 48.63509871050098 -13.329314561136608, 49.1175389702324 -12.944581292275288 C49.319269898417915 -12.76137460080508, 49.52100082660343 -12.578167909334873, 49.92425961025927 -12.21193895166137 C50.16031017251728 -11.968197366018394, 50.396360734775286 -11.724455780375418, 50.68238220028036 -11.42911513444239 C50.877597127794886 -11.199804572539774, 51.07281205530941 -10.97049401063716, 51.38879145195651 -10.59932663159847 C51.52601093729972 -10.415465022190842, 51.66323042264295 -10.231603412783214, 52.04058457814825 -9.725983222076888 C52.1802536679145 -9.511413993793932, 52.31992275768075 -9.296844765510976, 52.63508322109088 -8.812673661278927 C52.84883044050461 -8.43314382895687, 53.06257765991833 -8.053613996634812, 53.169844458341004 -7.863150934094199 C53.34145553953888 -7.506796852097895, 53.51306662073676 -7.15044277010159, 53.64267084126881 -6.881316833080699 C53.801055793520504 -6.490102938854273, 53.959440745772206 -6.098889044627846, 54.051619424845924 -5.871205925162238 C54.16666007096326 -5.5247218282946315, 54.2817007170806 -5.178237731427025, 54.395009751623235 -4.836968972727556 C54.479140141833405 -4.516143332514414, 54.56327053204357 -4.195317692301272, 54.671430757091 -3.7828558772573464 C54.7151920736319 -3.558150765777376, 54.75895339017279 -3.3334456542974062, 54.87974656804565 -2.713198215567453 C54.92281182674071 -2.3791925733257417, 54.96587708543578 -2.0451869310840305, 55.019101170136366 -1.632391440430593 C55.03747743841304 -1.3461662289646334, 55.05585370668972 -1.0599410174986739, 55.0889219254117 -0.5448768187181379 C55.0889219254117 -0.3055209878283757, 55.0889219254117 -0.06616515693861358, 55.0889219254117 0.5448768187181336 C55.06638184589587 0.8959567512018745, 55.043841766380034 1.2470366836856153, 55.019101170136366 1.6323914404305815 C54.980988561604626 1.927985306016966, 54.94287595307288 2.2235791716033506, 54.879746568045654 2.7131982155674415 C54.81506243940971 3.045337545117615, 54.750378310773755 3.377476874667788, 54.671430757091 3.782855877257343 C54.60741446720732 4.026977735419375, 54.54339817732363 4.271099593581408, 54.395009751623235 4.836968972727545 C54.27087302586875 5.210849012198774, 54.14673630011426 5.584729051670003, 54.051619424845924 5.871205925162227 C53.9395884873604 6.147924506722284, 53.82755754987489 6.424643088282343, 53.64267084126881 6.881316833080694 C53.54412885869436 7.0859413683572035, 53.445586876119904 7.290565903633712, 53.169844458341004 7.863150934094196 C53.02442684706148 8.121354628050874, 52.87900923578195 8.37955832200755, 52.63508322109089 8.812673661278923 C52.447085174069656 9.101489146047667, 52.25908712704842 9.39030463081641, 52.040584578148255 9.725983222076879 C51.82965576648319 10.008608613698012, 51.61872695481812 10.291234005319145, 51.38879145195651 10.599326631598467 C51.11746070330118 10.918047168125995, 50.846129954645846 11.23676770465352, 50.68238220028037 11.42911513444238 C50.42703029656194 11.692786939812848, 50.1716783928435 11.956458745183316, 49.92425961025927 12.211938951661365 C49.631086795196225 12.478190745374006, 49.33791398013318 12.744442539086645, 49.11753897023242 12.944581292275275 C48.87309320126524 13.139520288051491, 48.628647432298074 13.334459283827707, 48.265535268350675 13.62403157175526 C47.93488418202964 13.854679455917983, 47.60423309570861 14.085327340080706, 47.37174957057934 14.247497783161286 C47.12379941450392 14.39780662489106, 46.875849258428495 14.548115466620837, 46.43985463406695 14.81241797009762 C46.147200412587104 14.965095489989679, 45.85454619110726 15.117773009881738, 45.47367981499849 15.316470754341124 C45.1138172483439 15.475771237655351, 44.753954681689315 15.635071720969579, 44.477195332949364 15.757584874882367 C44.23680662236902 15.846050142504813, 43.99641791178868 15.93451541012726, 43.45449595640156 16.133947699181363 C43.07541778586939 16.24645611037339, 42.69633961533722 16.35896452156542, 42.40978417646164 16.444012671663497 C42.02245816959104 16.532417305193306, 41.63513216272044 16.620821938723115, 41.34735293792333 16.68650566884811 C41.08590085883502 16.728775213403953, 40.8244487797467 16.771044757959796, 40.27156799863661 16.86043023499518 C39.968548874191995 16.88966212549654, 39.665529749747385 16.918894015997893, 39.18684998967212 16.965071676755716 C38.894243443206705 16.97445499917677, 38.60163689674128 16.983838321597826, 38.09765625 17 C38.09765625 17, 38.09765625 17, 38.09765625 17 C17.8387297764485 17, -2.420196697103002 17, -38.09765625 17 C-38.47091845850882 16.988030207483934, -38.84418066701764 16.976060414967872, -39.18684998967211 16.965071676755716 C-39.44876922672832 16.939804642960873, -39.71068846378453 16.91453760916603, -40.271567998636606 16.86043023499518 C-40.50152473797289 16.823252612720438, -40.73148147730919 16.786074990445695, -41.347352937923326 16.68650566884811 C-41.704552325575 16.60497723956046, -42.06175171322667 16.523448810272807, -42.40978417646162 16.4440126716635 C-42.73719507716978 16.34683883494821, -43.06460597787793 16.249664998232916, -43.454495956401544 16.13394769918137 C-43.85631618016704 15.986074142450235, -44.258136403932546 15.8382005857191, -44.477195332949364 15.757584874882369 C-44.788642835199255 15.619716304398244, -45.10009033744914 15.481847733914119, -45.47367981499848 15.316470754341127 C-45.726851391380386 15.184391305106823, -45.98002296776228 15.05231185587252, -46.43985463406693 14.812417970097624 C-46.6517704062833 14.683953383624756, -46.86368617849966 14.555488797151886, -47.37174957057932 14.247497783161299 C-47.55276713899735 14.121227763557117, -47.73378470741539 13.994957743952938, -48.26553526835067 13.624031571755264 C-48.47238945815049 13.459070860011082, -48.6792436479503 13.294110148266897, -49.1175389702324 12.94458129227529 C-49.380643747006125 12.705636495380313, -49.643748523779855 12.466691698485336, -49.92425961025926 12.211938951661377 C-50.1946547571016 11.932733762692243, -50.46504990394394 11.653528573723108, -50.682382200280365 11.429115134442386 C-50.83249511350354 11.25278396490371, -50.98260802672671 11.076452795365032, -51.38879145195651 10.599326631598473 C-51.55204447622366 10.380582451736963, -51.715297500490806 10.161838271875455, -52.04058457814825 9.72598322207689 C-52.23714715516914 9.42401031933035, -52.43370973219003 9.12203741658381, -52.63508322109088 8.812673661278936 C-52.786558203480624 8.54371449154073, -52.93803318587037 8.274755321802521, -53.169844458341004 7.863150934094201 C-53.30237722327626 7.587943811959253, -53.43490998821151 7.3127366898243045, -53.64267084126881 6.881316833080701 C-53.76382277701085 6.582069209484534, -53.884974712752886 6.282821585888367, -54.051619424845924 5.87120592516224 C-54.16906778449733 5.517470178747056, -54.28651614414874 5.163734432331872, -54.395009751623235 4.8369689727275516 C-54.46650917813798 4.564310671379339, -54.53800860465273 4.291652370031127, -54.671430757091 3.782855877257349 C-54.74021443693337 3.429666218702675, -54.80899811677573 3.0764765601480013, -54.87974656804565 2.713198215567455 C-54.91188693598788 2.4639238686410283, -54.94402730393011 2.214649521714602, -55.019101170136366 1.6323914404306026 C-55.03655124855529 1.3605923836060612, -55.05400132697422 1.0887933267815195, -55.0889219254117 0.54487681871814 C-55.0889219254117 0.2302598550841935, -55.0889219254117 -0.08435710854975298, -55.0889219254117 -0.5448768187181317 C-55.06268784948703 -0.9534937270097388, -55.036453773562364 -1.3621106353013457, -55.019101170136366 -1.6323914404305793 C-54.966504883141084 -2.0403178560543864, -54.913908596145795 -2.448244271678194, -54.879746568045654 -2.713198215567447 C-54.805564919653946 -3.0941053017619145, -54.731383271262246 -3.475012387956382, -54.671430757091 -3.782855877257341 C-54.57773132444732 -4.140172423518687, -54.48403189180364 -4.497488969780033, -54.395009751623235 -4.836968972727544 C-54.28881627083106 -5.15680681724014, -54.182622790038884 -5.4766446617527365, -54.05161942484593 -5.871205925162218 C-53.93755169983122 -6.152955411297994, -53.823483974816504 -6.434704897433771, -53.64267084126881 -6.881316833080692 C-53.526302980943484 -7.122957184919571, -53.409935120618165 -7.364597536758448, -53.169844458341004 -7.863150934094194 C-53.025166076028746 -8.120042052164438, -52.88048769371649 -8.37693317023468, -52.63508322109088 -8.812673661278929 C-52.402492453322594 -9.169995539937293, -52.169901685554315 -9.52731741859566, -52.04058457814825 -9.725983222076884 C-51.8008760702904 -10.047170784712092, -51.561167562432544 -10.3683583473473, -51.38879145195651 -10.599326631598467 C-51.23158055514894 -10.783995496542087, -51.07436965834136 -10.968664361485708, -50.68238220028037 -11.42911513444238 C-50.50400602581277 -11.61330317953646, -50.32562985134517 -11.797491224630539, -49.92425961025928 -12.21193895166136 C-49.63306002017178 -12.476398714659874, -49.34186043008429 -12.740858477658389, -49.11753897023242 -12.944581292275274 C-48.941146567383136 -13.0852495395486, -48.764754164533855 -13.225917786821928, -48.265535268350675 -13.624031571755259 C-47.956559412167984 -13.839559753679065, -47.647583555985285 -14.055087935602872, -47.37174957057934 -14.247497783161284 C-47.08851505703683 -14.419196209741507, -46.80528054349433 -14.59089463632173, -46.43985463406695 -14.812417970097618 C-46.11357573549523 -14.982637462490873, -45.78729683692352 -15.152856954884129, -45.47367981499849 -15.316470754341124 C-45.16299340788839 -15.454002410583946, -44.8523070007783 -15.59153406682677, -44.47719533294937 -15.757584874882365 C-44.16590065340367 -15.872144194531657, -43.85460597385797 -15.986703514180949, -43.454495956401566 -16.133947699181363 C-43.17013340744666 -16.218345011061697, -42.88577085849176 -16.302742322942034, -42.40978417646164 -16.444012671663494 C-42.15468995179936 -16.502236263797275, -41.89959572713708 -16.560459855931054, -41.34735293792333 -16.68650566884811 C-41.02080669395647 -16.73929913316873, -40.69426044998962 -16.792092597489347, -40.27156799863661 -16.86043023499518 C-39.88361584910882 -16.897855512279406, -39.49566369958102 -16.935280789563627, -39.18684998967212 -16.965071676755716 C-38.79865485156221 -16.977520339258902, -38.41045971345231 -16.98996900176209, -38.09765625000001 -17 C-38.09765625000001 -17, -38.09765625 -17, -38.09765625 -17" stroke="none" stroke-width="0" fill="#26221C" style=""/><path d="M-38.09765625 -17 C-20.699855805343162 -17, -3.3020553606863245 -17, 38.09765625 -17 M-38.09765625 -17 C-15.702195439928623 -17, 6.693265370142754 -17, 38.09765625 -17 M38.09765625 -17 C38.09765625 -17, 38.09765625 -17, 38.09765625 -17 M38.09765625 -17 C38.09765625 -17, 38.09765625 -17, 38.09765625 -17 M38.09765625 -17 C38.42809467509004 -16.989403482866738, 38.758533100180074 -16.978806965733476, 39.18684998967212 -16.965071676755716 M38.09765625 -17 C38.50870732353198 -16.986818392134207, 38.919758397063966 -16.973636784268415, 39.18684998967212 -16.965071676755716 M39.18684998967212 -16.965071676755716 C39.51196131010912 -16.93370857867673, 39.837072630546125 -16.90234548059774, 40.2715679986366 -16.860430234995185 M39.18684998967212 -16.965071676755716 C39.54637725132852 -16.930388514218517, 39.90590451298492 -16.89570535168132, 40.2715679986366 -16.860430234995185 M40.2715679986366 -16.860430234995185 C40.68649128332736 -16.793348656104513, 41.10141456801813 -16.72626707721384, 41.347352937923326 -16.686505668848113 M40.2715679986366 -16.860430234995185 C40.618174361847224 -16.804393606163785, 40.96478072505784 -16.74835697733238, 41.347352937923326 -16.686505668848113 M41.347352937923326 -16.686505668848113 C41.767730707962684 -16.590557186057946, 42.18810847800204 -16.49460870326778, 42.40978417646162 -16.4440126716635 M41.347352937923326 -16.686505668848113 C41.565231175925334 -16.63677638281253, 41.783109413927335 -16.58704709677695, 42.40978417646162 -16.4440126716635 M42.40978417646162 -16.4440126716635 C42.647369135566244 -16.373498702910148, 42.884954094670874 -16.302984734156794, 43.45449595640155 -16.133947699181366 M42.40978417646162 -16.4440126716635 C42.773415308244346 -16.33608886048915, 43.13704644002707 -16.228165049314796, 43.45449595640155 -16.133947699181366 M43.45449595640155 -16.133947699181366 C43.70092978700457 -16.043257771510095, 43.94736361760759 -15.952567843838827, 44.47719533294936 -15.757584874882369 M43.45449595640155 -16.133947699181366 C43.836512713455456 -15.993362001261339, 44.21852947050935 -15.852776303341312, 44.47719533294936 -15.757584874882369 M44.47719533294936 -15.757584874882369 C44.83547477217267 -15.598985195120163, 45.19375421139598 -15.440385515357958, 45.47367981499849 -15.316470754341125 M44.47719533294936 -15.757584874882369 C44.83423181466832 -15.59953541553631, 45.19126829638729 -15.441485956190252, 45.47367981499849 -15.316470754341125 M45.47367981499849 -15.316470754341125 C45.67807700652698 -15.20983687044336, 45.88247419805548 -15.103202986545593, 46.43985463406694 -14.812417970097622 M45.47367981499849 -15.316470754341125 C45.75358247014424 -15.170445718437795, 46.033485125289985 -15.024420682534465, 46.43985463406694 -14.812417970097622 M46.43985463406694 -14.812417970097622 C46.79496795891635 -14.59714618569637, 47.150081283765765 -14.38187440129512, 47.371749570579325 -14.247497783161291 M46.43985463406694 -14.812417970097622 C46.675710804368606 -14.669440573616045, 46.91156697467028 -14.526463177134469, 47.371749570579325 -14.247497783161291 M47.371749570579325 -14.247497783161291 C47.58480339275097 -14.098880659765669, 47.79785721492261 -13.950263536370045, 48.265535268350675 -13.624031571755262 M47.371749570579325 -14.247497783161291 C47.56969226963589 -14.109421525100773, 47.76763496869245 -13.971345267040252, 48.265535268350675 -13.624031571755262 M48.265535268350675 -13.624031571755262 C48.57358624749922 -13.37836911346513, 48.88163722664776 -13.132706655174998, 49.1175389702324 -12.944581292275288 M48.265535268350675 -13.624031571755262 C48.45581293701292 -13.472290194498534, 48.64609060567518 -13.320548817241807, 49.1175389702324 -12.944581292275288 M49.1175389702324 -12.944581292275288 C49.42408819516609 -12.666181397038542, 49.73063742009978 -12.387781501801795, 49.92425961025927 -12.21193895166137 M49.1175389702324 -12.944581292275288 C49.358727847618646 -12.725539935341104, 49.59991672500488 -12.506498578406921, 49.92425961025927 -12.21193895166137 M49.92425961025927 -12.21193895166137 C50.08986341924896 -12.040939422553944, 50.25546722823864 -11.869939893446515, 50.68238220028036 -11.42911513444239 M49.92425961025927 -12.21193895166137 C50.16093301656024 -11.967554228407584, 50.397606422861216 -11.7231695051538, 50.68238220028036 -11.42911513444239 M50.68238220028036 -11.42911513444239 C50.89117941011177 -11.183850050876606, 51.09997661994318 -10.93858496731082, 51.38879145195651 -10.59932663159847 M50.68238220028036 -11.42911513444239 C50.87091877782083 -11.207649342428173, 51.05945535536131 -10.986183550413958, 51.38879145195651 -10.59932663159847 M51.38879145195651 -10.59932663159847 C51.54693210736103 -10.387432560266499, 51.705072762765546 -10.175538488934526, 52.04058457814825 -9.725983222076888 M51.38879145195651 -10.59932663159847 C51.61929232747317 -10.290476457467893, 51.84979320298984 -9.981626283337313, 52.04058457814825 -9.725983222076888 M52.04058457814825 -9.725983222076888 C52.26602335657277 -9.379648719628593, 52.49146213499728 -9.033314217180296, 52.63508322109088 -8.812673661278927 M52.04058457814825 -9.725983222076888 C52.17579584104783 -9.518262412955256, 52.31100710394742 -9.310541603833624, 52.63508322109088 -8.812673661278927 M52.63508322109088 -8.812673661278927 C52.77516481261921 -8.563944610721098, 52.91524640414753 -8.315215560163267, 53.169844458341004 -7.863150934094199 M52.63508322109088 -8.812673661278927 C52.795523402868405 -8.527795872202837, 52.95596358464593 -8.242918083126748, 53.169844458341004 -7.863150934094199 M53.169844458341004 -7.863150934094199 C53.35153306530908 -7.485870654211566, 53.53322167227716 -7.108590374328932, 53.64267084126881 -6.881316833080699 M53.169844458341004 -7.863150934094199 C53.321026563646605 -7.549218057648265, 53.472208668952206 -7.235285181202331, 53.64267084126881 -6.881316833080699 M53.64267084126881 -6.881316833080699 C53.771676908292044 -6.562669353370691, 53.90068297531527 -6.244021873660682, 54.051619424845924 -5.871205925162238 M53.64267084126881 -6.881316833080699 C53.77086449540307 -6.564676028913387, 53.899058149537325 -6.248035224746075, 54.051619424845924 -5.871205925162238 M54.051619424845924 -5.871205925162238 C54.15451855793948 -5.561290131034856, 54.25741769103304 -5.251374336907475, 54.395009751623235 -4.836968972727556 M54.051619424845924 -5.871205925162238 C54.148304831690915 -5.5800048844727135, 54.244990238535905 -5.288803843783189, 54.395009751623235 -4.836968972727556 M54.395009751623235 -4.836968972727556 C54.482615253488184 -4.502891225651827, 54.57022075535313 -4.168813478576097, 54.671430757091 -3.7828558772573464 M54.395009751623235 -4.836968972727556 C54.45091190469949 -4.623789834901388, 54.50681405777575 -4.410610697075221, 54.671430757091 -3.7828558772573464 M54.671430757091 -3.7828558772573464 C54.72949645695861 -3.484700780627191, 54.78756215682622 -3.186545683997035, 54.87974656804565 -2.713198215567453 M54.671430757091 -3.7828558772573464 C54.73812766025491 -3.4403813759061475, 54.80482456341882 -3.0979068745549485, 54.87974656804565 -2.713198215567453 M54.87974656804565 -2.713198215567453 C54.90934441145724 -2.4836431868223867, 54.93894225486884 -2.2540881580773204, 55.019101170136366 -1.632391440430593 M54.87974656804565 -2.713198215567453 C54.93435821620964 -2.2896410566972683, 54.98896986437362 -1.8660838978270835, 55.019101170136366 -1.632391440430593 M55.019101170136366 -1.632391440430593 C55.04279257609899 -1.263378669204109, 55.066483982061605 -0.8943658979776249, 55.0889219254117 -0.5448768187181379 M55.019101170136366 -1.632391440430593 C55.034320064132764 -1.395344881966555, 55.04953895812917 -1.158298323502517, 55.0889219254117 -0.5448768187181379 M55.0889219254117 -0.5448768187181379 C55.0889219254117 -0.1742575034304617, 55.0889219254117 0.19636181185721446, 55.0889219254117 0.5448768187181336 M55.0889219254117 -0.5448768187181379 C55.0889219254117 -0.30864613767340243, 55.0889219254117 -0.072415456628667, 55.0889219254117 0.5448768187181336 M55.0889219254117 0.5448768187181336 C55.06899293238498 0.8552869715028122, 55.04906393935827 1.1656971242874907, 55.019101170136366 1.6323914404305815 M55.0889219254117 0.5448768187181336 C55.06760219775174 0.8769487859964069, 55.046282470091775 1.2090207532746802, 55.019101170136366 1.6323914404305815 M55.019101170136366 1.6323914404305815 C54.97092098975743 2.006067405196887, 54.92274080937849 2.3797433699631925, 54.879746568045654 2.7131982155674415 M55.019101170136366 1.6323914404305815 C54.98566841505047 1.8916892868326065, 54.952235659964565 2.1509871332346315, 54.879746568045654 2.7131982155674415 M54.879746568045654 2.7131982155674415 C54.81013475499364 3.070640163127633, 54.74052294194163 3.4280821106878254, 54.671430757091 3.782855877257343 M54.879746568045654 2.7131982155674415 C54.80058007370386 3.119701432168034, 54.72141357936207 3.5262046487686267, 54.671430757091 3.782855877257343 M54.671430757091 3.782855877257343 C54.56398246769891 4.192602773092606, 54.45653417830681 4.602349668927869, 54.395009751623235 4.836968972727545 M54.671430757091 3.782855877257343 C54.57980091553831 4.132280175722308, 54.48817107398561 4.481704474187274, 54.395009751623235 4.836968972727545 M54.395009751623235 4.836968972727545 C54.26486377978893 5.228947903947847, 54.13471780795463 5.62092683516815, 54.051619424845924 5.871205925162227 M54.395009751623235 4.836968972727545 C54.32631779553815 5.043858199878922, 54.25762583945306 5.250747427030297, 54.051619424845924 5.871205925162227 M54.051619424845924 5.871205925162227 C53.89270648002969 6.263723971231108, 53.73379353521345 6.656242017299989, 53.64267084126881 6.881316833080694 M54.051619424845924 5.871205925162227 C53.958874623396525 6.100287377840994, 53.866129821947126 6.329368830519762, 53.64267084126881 6.881316833080694 M53.64267084126881 6.881316833080694 C53.469081651939455 7.2417784989367435, 53.295492462610106 7.602240164792793, 53.169844458341004 7.863150934094196 M53.64267084126881 6.881316833080694 C53.49755766093405 7.182647456970482, 53.352444480599296 7.48397808086027, 53.169844458341004 7.863150934094196 M53.169844458341004 7.863150934094196 C53.040043018607605 8.093626534161888, 52.910241578874206 8.32410213422958, 52.63508322109089 8.812673661278923 M53.169844458341004 7.863150934094196 C53.01513761594352 8.137848598537454, 52.86043077354604 8.412546262980712, 52.63508322109089 8.812673661278923 M52.63508322109089 8.812673661278923 C52.40149579664551 9.17152667223309, 52.16790837220014 9.53037968318726, 52.040584578148255 9.725983222076879 M52.63508322109089 8.812673661278923 C52.415686194315846 9.149726410756141, 52.196289167540804 9.486779160233361, 52.040584578148255 9.725983222076879 M52.040584578148255 9.725983222076879 C51.81089288453169 10.033749166179312, 51.581201190915124 10.341515110281744, 51.38879145195651 10.599326631598467 M52.040584578148255 9.725983222076879 C51.865315740986986 9.960827496553438, 51.69004690382571 10.195671771029998, 51.38879145195651 10.599326631598467 M51.38879145195651 10.599326631598467 C51.13823718717897 10.893641927947712, 50.88768292240143 11.187957224296955, 50.68238220028037 11.42911513444238 M51.38879145195651 10.599326631598467 C51.207218255824365 10.812612839582835, 51.025645059692216 11.0258990475672, 50.68238220028037 11.42911513444238 M50.68238220028037 11.42911513444238 C50.39102733104324 11.729962957609342, 50.099672461806115 12.030810780776303, 49.92425961025927 12.211938951661365 M50.68238220028037 11.42911513444238 C50.51693145277527 11.599956615000389, 50.35148070527017 11.7707980955584, 49.92425961025927 12.211938951661365 M49.92425961025927 12.211938951661365 C49.64140074317821 12.468823890708876, 49.35854187609715 12.725708829756385, 49.11753897023242 12.944581292275275 M49.92425961025927 12.211938951661365 C49.61622703659126 12.491685984971367, 49.30819446292325 12.77143301828137, 49.11753897023242 12.944581292275275 M49.11753897023242 12.944581292275275 C48.83149138662506 13.172696628156254, 48.54544380301771 13.400811964037233, 48.265535268350675 13.62403157175526 M49.11753897023242 12.944581292275275 C48.797587909193396 13.199733749198584, 48.477636848154376 13.454886206121893, 48.265535268350675 13.62403157175526 M48.265535268350675 13.62403157175526 C47.90811510306309 13.873352406590298, 47.5506949377755 14.122673241425336, 47.37174957057934 14.247497783161286 M48.265535268350675 13.62403157175526 C47.98342329276618 13.820820673492408, 47.7013113171817 14.017609775229555, 47.37174957057934 14.247497783161286 M47.37174957057934 14.247497783161286 C47.157930930645435 14.377115899227022, 46.94411229071153 14.506734015292757, 46.43985463406695 14.81241797009762 M47.37174957057934 14.247497783161286 C47.116232143598005 14.402393948984448, 46.86071471661666 14.557290114807609, 46.43985463406695 14.81241797009762 M46.43985463406695 14.81241797009762 C46.21915956412751 14.927554446723084, 45.99846449418808 15.042690923348548, 45.47367981499849 15.316470754341124 M46.43985463406695 14.81241797009762 C46.16308335760122 14.956809367749328, 45.886312081135486 15.101200765401035, 45.47367981499849 15.316470754341124 M45.47367981499849 15.316470754341124 C45.16667664563207 15.452371950494186, 44.859673476265655 15.588273146647248, 44.477195332949364 15.757584874882367 M45.47367981499849 15.316470754341124 C45.23433152692695 15.42242314145569, 44.99498323885542 15.528375528570258, 44.477195332949364 15.757584874882367 M44.477195332949364 15.757584874882367 C44.09973867659027 15.896492413593595, 43.72228202023118 16.035399952304825, 43.45449595640156 16.133947699181363 M44.477195332949364 15.757584874882367 C44.13430013641384 15.883773476895888, 43.791404939878326 16.00996207890941, 43.45449595640156 16.133947699181363 M43.45449595640156 16.133947699181363 C43.06583437552995 16.24930041625779, 42.67717279465834 16.364653133334212, 42.40978417646164 16.444012671663497 M43.45449595640156 16.133947699181363 C43.061691870589065 16.25052988997979, 42.66888778477657 16.367112080778217, 42.40978417646164 16.444012671663497 M42.40978417646164 16.444012671663497 C42.10824001038499 16.51283815981091, 41.80669584430834 16.58166364795833, 41.34735293792333 16.68650566884811 M42.40978417646164 16.444012671663497 C42.118928693878395 16.510398537553723, 41.82807321129514 16.576784403443945, 41.34735293792333 16.68650566884811 M41.34735293792333 16.68650566884811 C40.998789167939904 16.74285875602662, 40.650225397956476 16.799211843205136, 40.27156799863661 16.86043023499518 M41.34735293792333 16.68650566884811 C41.08019663410226 16.729697428221822, 40.81304033028119 16.772889187595535, 40.27156799863661 16.86043023499518 M40.27156799863661 16.86043023499518 C39.86801756126747 16.899360260347773, 39.464467123898324 16.93829028570037, 39.18684998967212 16.965071676755716 M40.27156799863661 16.86043023499518 C39.84016837029842 16.902046838307005, 39.40876874196022 16.94366344161883, 39.18684998967212 16.965071676755716 M39.18684998967212 16.965071676755716 C38.78059338386456 16.978099535373453, 38.37433677805701 16.99112739399119, 38.09765625 17 M39.18684998967212 16.965071676755716 C38.94676035015876 16.972770884188776, 38.706670710645405 16.980470091621836, 38.09765625 17 M38.09765625 17 C38.09765625 17, 38.09765625 17, 38.09765625 17 M38.09765625 17 C38.09765625 17, 38.09765625 17, 38.09765625 17 M38.09765625 17 C19.394884761943917 17, 0.6921132738878342 17, -38.09765625 17 M38.09765625 17 C16.976097078168696 17, -4.1454620936626085 17, -38.09765625 17 M-38.09765625 17 C-38.37955350322726 16.990960103768717, -38.66145075645451 16.98192020753744, -39.18684998967211 16.965071676755716 M-38.09765625 17 C-38.381764783780206 16.99088919230538, -38.66587331756041 16.981778384610763, -39.18684998967211 16.965071676755716 M-39.18684998967211 16.965071676755716 C-39.46910568380554 16.937842809404803, -39.75136137793897 16.910613942053885, -40.271567998636606 16.86043023499518 M-39.18684998967211 16.965071676755716 C-39.6005228711025 16.925165151398556, -40.014195752532885 16.885258626041395, -40.271567998636606 16.86043023499518 M-40.271567998636606 16.86043023499518 C-40.575007842756015 16.81137243420909, -40.878447686875425 16.762314633423003, -41.347352937923326 16.68650566884811 M-40.271567998636606 16.86043023499518 C-40.66839421443198 16.79627444985865, -41.06522043022735 16.732118664722123, -41.347352937923326 16.68650566884811 M-41.347352937923326 16.68650566884811 C-41.65965303657667 16.615225209279085, -41.97195313523001 16.54394474971006, -42.40978417646162 16.4440126716635 M-41.347352937923326 16.68650566884811 C-41.68733334481152 16.60890735955537, -42.027313751699715 16.531309050262635, -42.40978417646162 16.4440126716635 M-42.40978417646162 16.4440126716635 C-42.79619677794744 16.329327439863643, -43.182609379433266 16.21464220806379, -43.454495956401544 16.13394769918137 M-42.40978417646162 16.4440126716635 C-42.801210323663696 16.327839445811698, -43.19263647086577 16.2116662199599, -43.454495956401544 16.13394769918137 M-43.454495956401544 16.13394769918137 C-43.845559067516085 15.990032859343447, -44.23662217863063 15.846118019505523, -44.477195332949364 15.757584874882369 M-43.454495956401544 16.13394769918137 C-43.713564081796584 16.0386082342365, -43.972632207191616 15.943268769291624, -44.477195332949364 15.757584874882369 M-44.477195332949364 15.757584874882369 C-44.751942921927316 15.635962267339483, -45.02669051090527 15.514339659796597, -45.47367981499848 15.316470754341127 M-44.477195332949364 15.757584874882369 C-44.86878896510015 15.584237990141588, -45.26038259725094 15.410891105400806, -45.47367981499848 15.316470754341127 M-45.47367981499848 15.316470754341127 C-45.80507032748019 15.143584536245175, -46.1364608399619 14.970698318149221, -46.43985463406693 14.812417970097624 M-45.47367981499848 15.316470754341127 C-45.79077747875194 15.151041106271695, -46.1078751425054 14.985611458202262, -46.43985463406693 14.812417970097624 M-46.43985463406693 14.812417970097624 C-46.695886077450034 14.657210204511019, -46.951917520833135 14.502002438924416, -47.37174957057932 14.247497783161299 M-46.43985463406693 14.812417970097624 C-46.673910094566914 14.670532174479977, -46.907965555066895 14.52864637886233, -47.37174957057932 14.247497783161299 M-47.37174957057932 14.247497783161299 C-47.61265859964336 14.079450073270005, -47.85356762870741 13.911402363378713, -48.26553526835067 13.624031571755264 M-47.37174957057932 14.247497783161299 C-47.67454097557294 14.036283606666414, -47.97733238056655 13.82506943017153, -48.26553526835067 13.624031571755264 M-48.26553526835067 13.624031571755264 C-48.45160750839146 13.475643911912993, -48.637679748432255 13.32725625207072, -49.1175389702324 12.94458129227529 M-48.26553526835067 13.624031571755264 C-48.56684068094152 13.383748523287831, -48.86814609353237 13.143465474820399, -49.1175389702324 12.94458129227529 M-49.1175389702324 12.94458129227529 C-49.33711167847483 12.745171168225028, -49.556684386717244 12.545761044174766, -49.92425961025926 12.211938951661377 M-49.1175389702324 12.94458129227529 C-49.313915829490334 12.766237024544207, -49.51029268874827 12.587892756813122, -49.92425961025926 12.211938951661377 M-49.92425961025926 12.211938951661377 C-50.082771949953795 12.048261946821654, -50.24128428964833 11.884584941981933, -50.682382200280365 11.429115134442386 M-49.92425961025926 12.211938951661377 C-50.15529288353353 11.973378128821201, -50.3863261568078 11.734817305981025, -50.682382200280365 11.429115134442386 M-50.682382200280365 11.429115134442386 C-50.92680739287605 11.141999395032038, -51.17123258547173 10.854883655621688, -51.38879145195651 10.599326631598473 M-50.682382200280365 11.429115134442386 C-50.91407240385111 11.15695863778213, -51.14576260742186 10.884802141121877, -51.38879145195651 10.599326631598473 M-51.38879145195651 10.599326631598473 C-51.600768610487435 10.315296550683447, -51.81274576901836 10.03126646976842, -52.04058457814825 9.72598322207689 M-51.38879145195651 10.599326631598473 C-51.63570352075923 10.268486953555042, -51.88261558956195 9.937647275511612, -52.04058457814825 9.72598322207689 M-52.04058457814825 9.72598322207689 C-52.25833736926211 9.391456460114341, -52.47609016037597 9.05692969815179, -52.63508322109088 8.812673661278936 M-52.04058457814825 9.72598322207689 C-52.175359112594805 9.518933345137123, -52.310133647041354 9.311883468197356, -52.63508322109088 8.812673661278936 M-52.63508322109088 8.812673661278936 C-52.753143156545704 8.603046291014092, -52.87120309200053 8.393418920749248, -53.169844458341004 7.863150934094201 M-52.63508322109088 8.812673661278936 C-52.787358997805924 8.54229260012694, -52.93963477452097 8.271911538974942, -53.169844458341004 7.863150934094201 M-53.169844458341004 7.863150934094201 C-53.347542232146736 7.494157704663323, -53.52524000595247 7.1251644752324435, -53.64267084126881 6.881316833080701 M-53.169844458341004 7.863150934094201 C-53.281002003873716 7.632329912405055, -53.39215954940643 7.401508890715908, -53.64267084126881 6.881316833080701 M-53.64267084126881 6.881316833080701 C-53.792570262074236 6.511062365583148, -53.94246968287967 6.140807898085593, -54.051619424845924 5.87120592516224 M-53.64267084126881 6.881316833080701 C-53.749812765256635 6.616674209382595, -53.85695468924446 6.352031585684489, -54.051619424845924 5.87120592516224 M-54.051619424845924 5.87120592516224 C-54.14368034553508 5.593933099962263, -54.235741266224245 5.316660274762287, -54.395009751623235 4.8369689727275516 M-54.051619424845924 5.87120592516224 C-54.16206492295026 5.5385616819723875, -54.272510421054584 5.205917438782536, -54.395009751623235 4.8369689727275516 M-54.395009751623235 4.8369689727275516 C-54.501802263620775 4.429722840313442, -54.60859477561832 4.022476707899331, -54.671430757091 3.782855877257349 M-54.395009751623235 4.8369689727275516 C-54.50096196789099 4.432927252117611, -54.60691418415873 4.02888553150767, -54.671430757091 3.782855877257349 M-54.671430757091 3.782855877257349 C-54.74195110428154 3.420748798914594, -54.81247145147207 3.0586417205718397, -54.87974656804565 2.713198215567455 M-54.671430757091 3.782855877257349 C-54.72166968741373 3.5248895880518365, -54.77190861773645 3.266923298846324, -54.87974656804565 2.713198215567455 M-54.87974656804565 2.713198215567455 C-54.91725485821132 2.4222913238921215, -54.954763148377005 2.1313844322167874, -55.019101170136366 1.6323914404306026 M-54.87974656804565 2.713198215567455 C-54.9103008667497 2.4762251084475317, -54.940855165453755 2.239252001327608, -55.019101170136366 1.6323914404306026 M-55.019101170136366 1.6323914404306026 C-55.04333171464006 1.254981151242044, -55.06756225914376 0.8775708620534853, -55.0889219254117 0.54487681871814 M-55.019101170136366 1.6323914404306026 C-55.04424226485681 1.2407985966332857, -55.06938335957726 0.8492057528359687, -55.0889219254117 0.54487681871814 M-55.0889219254117 0.54487681871814 C-55.0889219254117 0.31905293789235756, -55.0889219254117 0.09322905706657508, -55.0889219254117 -0.5448768187181317 M-55.0889219254117 0.54487681871814 C-55.0889219254117 0.23704715001825738, -55.0889219254117 -0.07078251868162522, -55.0889219254117 -0.5448768187181317 M-55.0889219254117 -0.5448768187181317 C-55.06145137604769 -0.972752798890824, -55.03398082668369 -1.4006287790635166, -55.019101170136366 -1.6323914404305793 M-55.0889219254117 -0.5448768187181317 C-55.06359479026868 -0.9393673922660905, -55.038267655125665 -1.3338579658140493, -55.019101170136366 -1.6323914404305793 M-55.019101170136366 -1.6323914404305793 C-54.987913358010374 -1.874277952549692, -54.95672554588438 -2.1161644646688047, -54.879746568045654 -2.713198215567447 M-55.019101170136366 -1.6323914404305793 C-54.97005715203933 -2.0127671599544086, -54.921013133942296 -2.393142879478238, -54.879746568045654 -2.713198215567447 M-54.879746568045654 -2.713198215567447 C-54.83013045178787 -2.9679664861812625, -54.78051433553009 -3.222734756795078, -54.671430757091 -3.782855877257341 M-54.879746568045654 -2.713198215567447 C-54.82859812472134 -2.9758346618104796, -54.77744968139702 -3.238471108053512, -54.671430757091 -3.782855877257341 M-54.671430757091 -3.782855877257341 C-54.581111610223665 -4.127281928828362, -54.49079246335633 -4.471707980399382, -54.395009751623235 -4.836968972727544 M-54.671430757091 -3.782855877257341 C-54.58745712231013 -4.103083741080356, -54.50348348752925 -4.423311604903371, -54.395009751623235 -4.836968972727544 M-54.395009751623235 -4.836968972727544 C-54.264236573186295 -5.230836950303191, -54.133463394749356 -5.624704927878838, -54.05161942484593 -5.871205925162218 M-54.395009751623235 -4.836968972727544 C-54.29615310852215 -5.134709431080921, -54.19729646542106 -5.432449889434299, -54.05161942484593 -5.871205925162218 M-54.05161942484593 -5.871205925162218 C-53.96914331173364 -6.074923519116749, -53.886667198621346 -6.27864111307128, -53.64267084126881 -6.881316833080692 M-54.05161942484593 -5.871205925162218 C-53.90222857706578 -6.240204207454747, -53.75283772928562 -6.609202489747277, -53.64267084126881 -6.881316833080692 M-53.64267084126881 -6.881316833080692 C-53.492123756375875 -7.19393107605246, -53.34157667148295 -7.5065453190242275, -53.169844458341004 -7.863150934094194 M-53.64267084126881 -6.881316833080692 C-53.453733361734244 -7.273649551948665, -53.264795882199685 -7.665982270816638, -53.169844458341004 -7.863150934094194 M-53.169844458341004 -7.863150934094194 C-52.97645242759751 -8.206538067745893, -52.78306039685402 -8.549925201397592, -52.63508322109088 -8.812673661278929 M-53.169844458341004 -7.863150934094194 C-53.03745635669388 -8.098219414317619, -52.905068255046764 -8.333287894541042, -52.63508322109088 -8.812673661278929 M-52.63508322109088 -8.812673661278929 C-52.40365855920116 -9.16820408816455, -52.172233897311436 -9.523734515050172, -52.04058457814825 -9.725983222076884 M-52.63508322109088 -8.812673661278929 C-52.39957102556926 -9.17448363747962, -52.16405883004763 -9.53629361368031, -52.04058457814825 -9.725983222076884 M-52.04058457814825 -9.725983222076884 C-51.80205802756724 -10.045587069639646, -51.56353147698623 -10.365190917202408, -51.38879145195651 -10.599326631598467 M-52.04058457814825 -9.725983222076884 C-51.87683240297003 -9.945396218685644, -51.713080227791814 -10.164809215294405, -51.38879145195651 -10.599326631598467 M-51.38879145195651 -10.599326631598467 C-51.194930539961405 -10.8270466898263, -51.00106962796631 -11.054766748054131, -50.68238220028037 -11.42911513444238 M-51.38879145195651 -10.599326631598467 C-51.11608129004025 -10.919667505433118, -50.843371128123984 -11.240008379267769, -50.68238220028037 -11.42911513444238 M-50.68238220028037 -11.42911513444238 C-50.41715847447081 -11.702980406613602, -50.151934748661255 -11.976845678784825, -49.92425961025928 -12.21193895166136 M-50.68238220028037 -11.42911513444238 C-50.444567109708736 -11.674678740439646, -50.2067520191371 -11.92024234643691, -49.92425961025928 -12.21193895166136 M-49.92425961025928 -12.21193895166136 C-49.64744817383881 -12.463331774189166, -49.370636737418344 -12.714724596716971, -49.11753897023242 -12.944581292275274 M-49.92425961025928 -12.21193895166136 C-49.715970546376354 -12.401101568453193, -49.50768148249344 -12.590264185245026, -49.11753897023242 -12.944581292275274 M-49.11753897023242 -12.944581292275274 C-48.80949467030067 -13.19023842406775, -48.50145037036892 -13.435895555860228, -48.265535268350675 -13.624031571755259 M-49.11753897023242 -12.944581292275274 C-48.810766054395444 -13.18922452908512, -48.50399313855847 -13.433867765894965, -48.265535268350675 -13.624031571755259 M-48.265535268350675 -13.624031571755259 C-48.013122497658 -13.800103793817735, -47.760709726965324 -13.976176015880212, -47.37174957057934 -14.247497783161284 M-48.265535268350675 -13.624031571755259 C-48.03074326702449 -13.787812307898484, -47.7959512656983 -13.951593044041712, -47.37174957057934 -14.247497783161284 M-47.37174957057934 -14.247497783161284 C-47.06114545741115 -14.435787821876218, -46.750541344242954 -14.624077860591152, -46.43985463406695 -14.812417970097618 M-47.37174957057934 -14.247497783161284 C-47.16799318833484 -14.371016099483311, -46.96423680609034 -14.49453441580534, -46.43985463406695 -14.812417970097618 M-46.43985463406695 -14.812417970097618 C-46.207432152362166 -14.933672629929296, -45.975009670657386 -15.054927289760975, -45.47367981499849 -15.316470754341124 M-46.43985463406695 -14.812417970097618 C-46.229156048727255 -14.92233928711045, -46.01845746338756 -15.03226060412328, -45.47367981499849 -15.316470754341124 M-45.47367981499849 -15.316470754341124 C-45.17843734738129 -15.44716583669863, -44.88319487976409 -15.577860919056137, -44.47719533294937 -15.757584874882365 M-45.47367981499849 -15.316470754341124 C-45.21305147344445 -15.431843189882036, -44.95242313189041 -15.547215625422949, -44.47719533294937 -15.757584874882365 M-44.47719533294937 -15.757584874882365 C-44.169245382295045 -15.870913303381295, -43.86129543164073 -15.984241731880225, -43.454495956401566 -16.133947699181363 M-44.47719533294937 -15.757584874882365 C-44.22042379074254 -15.852079175984597, -43.9636522485357 -15.94657347708683, -43.454495956401566 -16.133947699181363 M-43.454495956401566 -16.133947699181363 C-43.16737562092958 -16.219163507624053, -42.880255285457594 -16.30437931606674, -42.40978417646164 -16.444012671663494 M-43.454495956401566 -16.133947699181363 C-43.10071502580313 -16.23894802234898, -42.7469340952047 -16.34394834551659, -42.40978417646164 -16.444012671663494 M-42.40978417646164 -16.444012671663494 C-42.008989286788946 -16.535491489800208, -41.60819439711625 -16.62697030793692, -41.34735293792333 -16.68650566884811 M-42.40978417646164 -16.444012671663494 C-42.19377977231107 -16.493314267350396, -41.9777753681605 -16.542615863037295, -41.34735293792333 -16.68650566884811 M-41.34735293792333 -16.68650566884811 C-41.00155948154744 -16.74241087320666, -40.65576602517154 -16.79831607756521, -40.27156799863661 -16.86043023499518 M-41.34735293792333 -16.68650566884811 C-40.963688559789155 -16.748533550143154, -40.58002418165498 -16.8105614314382, -40.27156799863661 -16.86043023499518 M-40.27156799863661 -16.86043023499518 C-40.052551009547436 -16.881558540526147, -39.83353402045826 -16.90268684605711, -39.18684998967212 -16.965071676755716 M-40.27156799863661 -16.86043023499518 C-39.86498453772055 -16.8996528524816, -39.45840107680449 -16.93887546996802, -39.18684998967212 -16.965071676755716 M-39.18684998967212 -16.965071676755716 C-38.82798713411711 -16.976579710049194, -38.46912427856209 -16.988087743342668, -38.09765625000001 -17 M-39.18684998967212 -16.965071676755716 C-38.95057355041804 -16.972648602278404, -38.71429711116397 -16.980225527801093, -38.09765625000001 -17 M-38.09765625000001 -17 C-38.09765625000001 -17, -38.09765625 -17, -38.09765625 -17 M-38.09765625000001 -17 C-38.09765625000001 -17, -38.09765625 -17, -38.09765625 -17" stroke="#D97757" stroke-width="1.3" fill="none" stroke-dasharray="0 0" style=""/></g><g class="label" style="" transform="translate(0, -9.5)"><rect/><g><rect class="background" style="stroke: none"/><text y="-10.1" style=""><tspan class="text-outer-tspan row" x="0" y="-0.1em" dy="1.1em"><tspan font-style="normal" class="text-inner-tspan" font-weight="normal">Delivered</tspan></tspan></text></g></g></g><g class="node default" id="my-svg-flowchart-RW-9" data-look="classic" transform="translate(1151.48046875, 131.5)"><rect class="basic label-container" style="" x="-102.24609375" y="-24.5" width="204.4921875" height="49"/><g class="label" style="" transform="translate(0, -9.5)"><rect/><g><rect class="background" style="stroke: none"/><text y="-10.1" style=""><tspan class="text-outer-tspan row" x="0" y="-0.1em" dy="1.1em"><tspan font-style="normal" class="text-inner-tspan" font-weight="normal">Writer</tspan><tspan font-style="normal" class="text-inner-tspan" font-weight="normal"> iterates</tspan></tspan></text></g></g></g></g></g></g><defs><filter id="my-svg-drop-shadow" height="130%" width="130%"><feDropShadow dx="4" dy="4" stdDeviation="0" flood-opacity="0.06" flood-color="#000000"/></filter></defs><defs><filter id="my-svg-drop-shadow-small" height="150%" width="150%"><feDropShadow dx="2" dy="2" stdDeviation="0" flood-opacity="0.06" flood-color="#000000"/></filter></defs><linearGradient id="my-svg-gradient" gradientUnits="objectBoundingBox" x1="0%" y1="0%" x2="100%" y2="0%"><stop offset="0%" stop-color="#D97757" stop-opacity="1"/><stop offset="100%" stop-color="hsl(28.5714285714, 0%, 23.5294117647%)" stop-opacity="1"/></linearGradient></svg>